<svg width="204" height="63" viewBox="0 0 204 63" fill="none" xmlns="http://www.w3.org/2000/svg">
<path d="M7.64062 30.6367C7.64062 31.9961 8.14453 33.3203 9.15234 34.6094C10.5117 36.2969 12.3398 37.1523 14.6367 37.1758V34.1523C13.0195 34.1523 11.8477 33.4375 11.1211 32.0078C10.8633 31.4922 10.7344 31.0352 10.7344 30.6367V18.7891C10.7344 17.9688 11.0859 17.1836 11.7891 16.4336C12.5625 15.6602 13.5117 15.2617 14.6367 15.2383V12.2148C11.9648 12.1914 9.97266 13.293 8.66016 15.5195C7.98047 16.668 7.64062 17.7578 7.64062 18.7891V30.6367ZM16.3594 37.1758C18.2344 37.1758 19.8398 36.4609 21.1758 35.0312C22.3711 33.7422 22.9688 32.2656 22.9688 30.6016L20.0508 29.8984C20.0508 30.1562 20.0391 30.3438 20.0156 30.4609C19.9688 31 19.8984 31.3984 19.8047 31.6562C19.5938 32.3359 19.1953 32.8867 18.6094 33.3086C18.0469 33.7305 17.5312 33.9766 17.0625 34.0469L16.3594 34.1523V37.1758ZM16.3594 15.2383C16.3594 15.2383 16.6992 15.3203 17.3789 15.4844C18.5508 15.9766 19.3594 16.7969 19.8047 17.9453C19.8984 18.2266 19.9688 18.6016 20.0156 19.0703V19.6328L22.9688 18.8594C22.9688 17.0781 22.2305 15.4844 20.7539 14.0781C19.3945 12.8359 17.9297 12.2148 16.3594 12.2148V15.2383ZM25.5352 37V17.9805H28.5234V20.582C29.1328 19.5508 30.0469 18.7891 31.2656 18.2969C31.9219 18.0391 32.5664 17.9102 33.1992 17.9102H33.832L33.1289 20.793C31.8398 20.8164 30.6914 21.5078 29.6836 22.8672C28.9102 23.9453 28.5234 25.0586 28.5234 26.207V37H25.5352ZM34.5352 17.9805H37.6641L43.0078 32.8516L39.3867 43.6797H36.3984L39.8438 32.8164L34.5352 17.9805ZM42.3047 26.1367L45.5039 17.9805H48.5977L43.9219 30.25H43.6055L42.3047 26.1367ZM49.4062 32.0078L52.1836 31.4805C52.1836 32.5352 52.7344 33.3672 53.8359 33.9766C54.375 34.2344 54.8906 34.375 55.3828 34.3984V37.1758C53.1094 37.1758 51.4102 36.3555 50.2852 34.7148C49.6992 33.8477 49.4062 32.9453 49.4062 32.0078ZM49.582 23.3594C49.582 21.2266 50.5547 19.6445 52.5 18.6133C53.4375 18.1211 54.375 17.875 55.3125 17.875V20.6172C54.2344 20.6172 53.4023 21.0625 52.8164 21.9531C52.5117 22.3984 52.3594 22.8672 52.3594 23.3594C52.3594 24.1094 52.9453 24.7188 54.1172 25.1875C55.0078 25.5625 56.7305 26.0547 59.2852 26.6641C60.8789 26.9922 62.0156 27.7773 62.6953 29.0195C63.0469 29.6758 63.2227 30.4141 63.2227 31.2344C63.2227 33.4844 62.3203 35.1484 60.5156 36.2266C59.4609 36.8594 58.2539 37.1758 56.8945 37.1758V34.3984C57.9727 34.3984 58.875 34.0234 59.6016 33.2734C60.1172 32.7344 60.375 32.1016 60.375 31.375C60.375 30.4375 59.4492 29.6875 57.5977 29.125C57.1289 28.9844 56.3789 28.7852 55.3477 28.5273C54.2461 28.2695 53.4492 28.0586 52.957 27.8945C51.1758 27.1914 50.0977 26.125 49.7227 24.6953C49.6289 24.2734 49.582 23.8281 49.582 23.3594ZM56.8594 20.6523V17.875C58.875 17.875 60.5039 18.625 61.7461 20.125C62.5195 21.0859 62.9062 22.0938 62.9062 23.1484L60.1289 23.6055C60.1289 22.3164 59.4258 21.4141 58.0195 20.8984C57.5977 20.7344 57.2109 20.6523 56.8594 20.6523ZM64.5234 21.0391V18.1914H66.8438V12.1094H69.832V18.1914H72.082V21.0742H69.832V31.1641C69.832 32.8281 70.5117 33.7539 71.8711 33.9414C72.1289 33.9883 72.3867 34.0117 72.6445 34.0117H73.1367L73.8047 37H72.5391C69.6562 36.9766 67.8867 35.8984 67.2305 33.7656C66.9961 32.9688 66.8789 31.9844 66.8789 30.8125L66.8438 21.0391H64.5234ZM75.1406 32.5703C75.1406 33.8594 75.7734 34.9492 77.0391 35.8398C78.1172 36.5898 79.3828 36.9648 80.8359 36.9648V34.2227C78.7969 34.1758 77.7656 33.4023 77.7422 31.9023V30.9531C77.7656 30.4375 77.9062 30.0625 78.1641 29.8281C78.4453 29.5703 79.6992 29.1719 81.9258 28.6328C83.6602 28.2109 84.832 27.8359 85.4414 27.5078V31.5508C85.4414 33.0742 84.7031 33.9531 83.2266 34.1875C82.9922 34.2109 82.7695 34.2227 82.5586 34.2227V36.9648C84.1992 36.9414 85.4883 36.5312 86.4258 35.7344C87.1523 36.5547 88.1016 36.9648 89.2734 36.9648V34.1875C88.6641 34.1406 88.3477 33.7539 88.3242 33.0273V23.3945C88.3242 21.8945 87.75 20.582 86.6016 19.457C85.5234 18.4258 84.1758 17.9102 82.5586 17.9102V20.6172C83.6602 20.6172 84.4805 21.0625 85.0195 21.9531C85.3008 22.4219 85.4414 22.9375 85.4414 23.5V24.168C85.4414 24.7539 84.0469 25.4336 81.2578 26.207C78.75 26.9102 77.3086 27.3555 76.9336 27.543C75.7383 28.2461 75.1406 29.3594 75.1406 30.8828V32.5703ZM75.3867 22.6914L77.9883 23.6758C77.9883 22.3633 78.5273 21.4492 79.6055 20.9336C80.0039 20.7461 80.4258 20.6523 80.8711 20.6523V17.9102C79.2539 17.9102 77.8711 18.4961 76.7227 19.668C75.832 20.5586 75.3867 21.5664 75.3867 22.6914ZM91.9102 37V12.1797H95.0391V37H91.9102ZM97.9922 37V12.1797H101.121V37H97.9922ZM112.441 37V12.3906H115.5V23.1133H118.664V26.1016H115.5V37H112.441ZM120.422 26.1016V23.1133H123.551V12.3906H126.645V37H123.551V26.1016H120.422ZM129.422 30.1445V18.5781C129.422 17.3359 129.949 16.0703 131.004 14.7812C132.41 13.0938 134.191 12.2383 136.348 12.2148V15.2734C134.918 15.2734 133.805 16 133.008 17.4531C132.68 18.0859 132.516 18.6484 132.516 19.1406V30.1445C132.516 31.6211 133.242 32.7695 134.695 33.5898C135.305 33.9414 135.844 34.1172 136.312 34.1172V37.1758C134.977 37.1758 133.641 36.6953 132.305 35.7344C130.406 34.3281 129.445 32.4648 129.422 30.1445ZM138.246 37.1758V34.1172C139.066 34.1172 139.898 33.7539 140.742 33.0273C141.633 32.2305 142.09 31.2695 142.113 30.1445V19.1406C142.113 18.2266 141.738 17.3477 140.988 16.5039C140.215 15.707 139.301 15.2969 138.246 15.2734V12.2148C140.613 12.2148 142.512 13.2344 143.941 15.2734C144.762 16.4453 145.172 17.5469 145.172 18.5781V30.1445C145.172 32.7461 144.012 34.7383 141.691 36.1211C140.473 36.8242 139.324 37.1758 138.246 37.1758ZM147.809 30.2148V12.3906H150.902V30.2148C150.902 31.7617 151.711 32.9219 153.328 33.6953C153.914 33.9766 154.406 34.1172 154.805 34.1172V37.1758C153.445 37.1758 152.086 36.6953 150.727 35.7344C148.805 34.3516 147.832 32.5117 147.809 30.2148ZM156.562 37.1758V34.1172C157.336 34.1172 158.133 33.8008 158.953 33.168C159.938 32.3945 160.441 31.4102 160.465 30.2148V12.3906H163.523V30.2148C163.523 32.8398 162.352 34.8203 160.008 36.1562C158.812 36.8359 157.664 37.1758 156.562 37.1758ZM165.703 31.4453L168.516 30.4609C168.656 31.4453 169.031 32.2539 169.641 32.8867C170.273 33.5195 170.871 33.9062 171.434 34.0469L172.242 34.2578V37.1055C170.18 37.1055 168.445 36.2266 167.039 34.4688C166.172 33.3672 165.727 32.3594 165.703 31.4453ZM165.984 19.0352C165.984 16.5039 167.074 14.6055 169.254 13.3398C170.332 12.707 171.328 12.3906 172.242 12.3906V15.2734C171.422 15.3672 170.648 15.8008 169.922 16.5742C169.266 17.3008 168.938 18.1328 168.938 19.0703C168.938 20.5 169.969 21.5781 172.031 22.3047C172.547 22.4688 173.332 22.6914 174.387 22.9727C175.488 23.2773 176.262 23.5117 176.707 23.6758C178.816 24.543 180.164 25.7266 180.75 27.2266C181.055 27.9766 181.207 28.8203 181.207 29.7578C181.207 31.7969 180.422 33.5664 178.852 35.0664C177.422 36.4258 175.805 37.1055 174 37.1055V34.2578C174.961 34.2109 175.887 33.7539 176.777 32.8867C177.668 31.9727 178.125 30.9297 178.148 29.7578C178.148 28.1172 177.012 26.9219 174.738 26.1719C174.246 26.0078 173.496 25.8086 172.488 25.5742C171.41 25.3164 170.684 25.1055 170.309 24.9414C168.316 24.1211 167.039 23.043 166.477 21.707C166.148 20.9336 165.984 20.043 165.984 19.0352ZM174 15.2734V12.3906C176.039 12.3906 177.738 13.293 179.098 15.0977C179.777 16.0117 180.152 16.832 180.223 17.5586L177.375 18.5078C177.047 16.8672 176.109 15.8242 174.562 15.3789C174.188 15.3086 174 15.2734 174 15.2734ZM183.562 37V12.3906H196.359V15.4141H186.621V23.2188H193.055V26.2773H186.621V33.9766H196.359V37H183.562Z" fill="white"/>
<path d="M39.892 55.584L37.348 51.48H38.308L40.612 55.26H42.208V51.48H43.132V55.26H44.728L47.02 51.48H47.992L45.436 55.584L48.304 60H47.332L44.848 56.004H43.132V60H42.208V56.004H40.492L38.008 60H37.036L39.892 55.584ZM51.7038 58.74L56.9838 51.48H57.6798V60H56.8398V52.86L51.6438 60H50.8758V51.48H51.7038V58.74ZM63.2123 53.736C63.1163 54.864 62.9923 55.828 62.8403 56.628C62.6963 57.428 62.5123 58.084 62.2883 58.596C62.0723 59.1 61.8083 59.472 61.4963 59.712C61.1923 59.944 60.8323 60.06 60.4163 60.06L60.2723 59.256C60.4323 59.248 60.5843 59.216 60.7283 59.16C60.8803 59.104 61.0243 59.004 61.1603 58.86C61.2963 58.708 61.4243 58.504 61.5443 58.248C61.6643 57.984 61.7763 57.648 61.8803 57.24C61.9843 56.824 62.0763 56.324 62.1563 55.74C62.2443 55.156 62.3203 54.464 62.3843 53.664L62.5643 51.48H66.8963V60H66.0683V52.224H63.3323L63.2123 53.736ZM73.957 60.06C73.365 60.06 72.821 59.94 72.325 59.7C71.837 59.452 71.417 59.128 71.065 58.728C70.713 58.32 70.441 57.856 70.249 57.336C70.057 56.816 69.961 56.284 69.961 55.74C69.961 55.172 70.061 54.628 70.261 54.108C70.469 53.588 70.753 53.128 71.113 52.728C71.473 52.328 71.897 52.012 72.385 51.78C72.873 51.54 73.401 51.42 73.969 51.42C74.561 51.42 75.101 51.548 75.589 51.804C76.085 52.052 76.505 52.38 76.849 52.788C77.201 53.196 77.473 53.66 77.665 54.18C77.857 54.692 77.953 55.216 77.953 55.752C77.953 56.32 77.849 56.864 77.641 57.384C77.441 57.904 77.161 58.364 76.801 58.764C76.449 59.156 76.029 59.472 75.541 59.712C75.053 59.944 74.525 60.06 73.957 60.06ZM70.801 55.74C70.801 56.204 70.877 56.652 71.029 57.084C71.181 57.508 71.397 57.888 71.677 58.224C71.957 58.552 72.289 58.816 72.673 59.016C73.057 59.208 73.485 59.304 73.957 59.304C74.437 59.304 74.873 59.2 75.265 58.992C75.657 58.784 75.989 58.512 76.261 58.176C76.533 57.84 76.741 57.46 76.885 57.036C77.037 56.612 77.113 56.18 77.113 55.74C77.113 55.276 77.033 54.832 76.873 54.408C76.721 53.976 76.505 53.596 76.225 53.268C75.945 52.94 75.613 52.68 75.229 52.488C74.845 52.288 74.421 52.188 73.957 52.188C73.477 52.188 73.041 52.292 72.649 52.5C72.257 52.7 71.925 52.968 71.653 53.304C71.381 53.64 71.169 54.02 71.017 54.444C70.873 54.868 70.801 55.3 70.801 55.74ZM86.2567 49.008C86.2407 49.392 86.0767 49.7 85.7647 49.932C85.4607 50.156 85.0367 50.268 84.4927 50.268C83.9487 50.268 83.5207 50.156 83.2087 49.932C82.9047 49.7 82.7447 49.392 82.7287 49.008H83.2447C83.2447 49.112 83.2767 49.212 83.3407 49.308C83.4047 49.404 83.4927 49.488 83.6047 49.56C83.7167 49.632 83.8487 49.692 84.0007 49.74C84.1527 49.78 84.3207 49.8 84.5047 49.8C84.8487 49.8 85.1327 49.728 85.3567 49.584C85.5887 49.432 85.7207 49.24 85.7527 49.008H86.2567ZM81.8167 58.74L87.0967 51.48H87.7927V60H86.9527V52.86L81.7567 60H80.9887V51.48H81.8167V58.74ZM96.7319 55.26H98.0279L100.812 51.48H101.772L98.7839 55.584L102.084 60H101.124L98.0999 56.004H96.7319V60H95.9039V51.48H96.7319V55.26ZM107.655 60.06C107.063 60.06 106.519 59.94 106.023 59.7C105.535 59.452 105.115 59.128 104.763 58.728C104.411 58.32 104.139 57.856 103.947 57.336C103.755 56.816 103.659 56.284 103.659 55.74C103.659 55.172 103.759 54.628 103.959 54.108C104.167 53.588 104.451 53.128 104.811 52.728C105.171 52.328 105.595 52.012 106.083 51.78C106.571 51.54 107.099 51.42 107.667 51.42C108.259 51.42 108.799 51.548 109.287 51.804C109.783 52.052 110.203 52.38 110.547 52.788C110.899 53.196 111.171 53.66 111.363 54.18C111.555 54.692 111.651 55.216 111.651 55.752C111.651 56.32 111.547 56.864 111.339 57.384C111.139 57.904 110.859 58.364 110.499 58.764C110.147 59.156 109.727 59.472 109.239 59.712C108.751 59.944 108.223 60.06 107.655 60.06ZM104.499 55.74C104.499 56.204 104.575 56.652 104.727 57.084C104.879 57.508 105.095 57.888 105.375 58.224C105.655 58.552 105.987 58.816 106.371 59.016C106.755 59.208 107.183 59.304 107.655 59.304C108.135 59.304 108.571 59.2 108.963 58.992C109.355 58.784 109.687 58.512 109.959 58.176C110.231 57.84 110.439 57.46 110.583 57.036C110.735 56.612 110.811 56.18 110.811 55.74C110.811 55.276 110.731 54.832 110.571 54.408C110.419 53.976 110.203 53.596 109.923 53.268C109.643 52.94 109.311 52.68 108.927 52.488C108.543 52.288 108.119 52.188 107.655 52.188C107.175 52.188 106.739 52.292 106.347 52.5C105.955 52.7 105.623 52.968 105.351 53.304C105.079 53.64 104.867 54.02 104.715 54.444C104.571 54.868 104.499 55.3 104.499 55.74ZM122.222 60V53.004L119.114 58.416H118.622L115.514 53.004V60H114.674V51.48H115.538L118.862 57.312L122.21 51.48H123.062V60H122.222ZM126.685 51.48H133.261V60H132.421V52.224H127.513V60H126.685V51.48ZM138.787 53.736C138.691 54.864 138.567 55.828 138.415 56.628C138.271 57.428 138.087 58.084 137.863 58.596C137.647 59.1 137.383 59.472 137.071 59.712C136.767 59.944 136.407 60.06 135.991 60.06L135.847 59.256C136.007 59.248 136.159 59.216 136.303 59.16C136.455 59.104 136.599 59.004 136.735 58.86C136.871 58.708 136.999 58.504 137.119 58.248C137.239 57.984 137.351 57.648 137.455 57.24C137.559 56.824 137.651 56.324 137.731 55.74C137.819 55.156 137.895 54.464 137.959 53.664L138.139 51.48H142.471V60H141.643V52.224H138.907L138.787 53.736ZM151.824 59.256V60H146.1V51.48H151.716V52.224H146.94V55.296H151.104V56.004H146.94V59.256H151.824ZM155.692 55.26H156.988L159.772 51.48H160.732L157.744 55.584L161.044 60H160.084L157.06 56.004H155.692V60H154.864V51.48H155.692V55.26ZM162.607 55.68C162.607 55.168 162.695 54.66 162.871 54.156C163.055 53.644 163.319 53.188 163.663 52.788C164.007 52.388 164.431 52.064 164.935 51.816C165.439 51.56 166.011 51.432 166.651 51.432C167.411 51.432 168.059 51.604 168.595 51.948C169.139 52.292 169.539 52.74 169.795 53.292L169.135 53.7C168.999 53.42 168.831 53.184 168.631 52.992C168.439 52.8 168.231 52.644 168.007 52.524C167.783 52.404 167.551 52.32 167.311 52.272C167.071 52.216 166.835 52.188 166.603 52.188C166.091 52.188 165.639 52.292 165.247 52.5C164.855 52.708 164.523 52.98 164.251 53.316C163.987 53.652 163.787 54.032 163.651 54.456C163.515 54.872 163.447 55.296 163.447 55.728C163.447 56.2 163.527 56.652 163.687 57.084C163.855 57.516 164.079 57.9 164.359 58.236C164.647 58.564 164.983 58.828 165.367 59.028C165.759 59.22 166.183 59.316 166.639 59.316C166.879 59.316 167.123 59.288 167.371 59.232C167.627 59.168 167.871 59.072 168.103 58.944C168.343 58.808 168.563 58.644 168.763 58.452C168.963 58.252 169.131 58.012 169.267 57.732L169.963 58.092C169.827 58.412 169.635 58.696 169.387 58.944C169.139 59.184 168.863 59.388 168.559 59.556C168.255 59.724 167.931 59.852 167.587 59.94C167.251 60.028 166.919 60.072 166.591 60.072C166.007 60.072 165.471 59.944 164.983 59.688C164.495 59.432 164.075 59.1 163.723 58.692C163.371 58.276 163.095 57.808 162.895 57.288C162.703 56.76 162.607 56.224 162.607 55.68Z" fill="white"/>
</svg>
